<?xml version="1.0" encoding="UTF-8" standalone="no"?>
<!DOCTYPE svg PUBLIC "-//W3C//DTD SVG 1.1//EN"
 "http://www.w3.org/Graphics/SVG/1.1/DTD/svg11.dtd">
<!-- Generated by graphviz version 2.36.0 (20140111.2315)
 -->
<!-- Title: G Pages: 1 -->
<svg width="781pt" height="1808pt"
 viewBox="0.00 0.00 781.00 1808.00" xmlns="http://www.w3.org/2000/svg" xmlns:xlink="http://www.w3.org/1999/xlink">
<g id="graph0" class="graph" transform="scale(1 1) rotate(0) translate(4 1804)">
<title>G</title>
<polygon fill="white" stroke="none" points="-4,4 -4,-1804 777,-1804 777,4 -4,4"/>
<g id="clust1" class="cluster"><title>cluster_Global</title>
<path fill="none" stroke="gray" d="M541,-8C541,-8 753,-8 753,-8 759,-8 765,-14 765,-20 765,-20 765,-1780 765,-1780 765,-1786 759,-1792 753,-1792 753,-1792 541,-1792 541,-1792 535,-1792 529,-1786 529,-1780 529,-1780 529,-20 529,-20 529,-14 535,-8 541,-8"/>
<text text-anchor="middle" x="647" y="-1779.2" font-family="Times,serif" font-size="11.00" fill="gray">Global</text>
</g>
<g id="clust2" class="cluster"><title>cluster_\Maclay</title>
<path fill="none" stroke="gray" d="M549,-16C549,-16 745,-16 745,-16 751,-16 757,-22 757,-28 757,-28 757,-1753 757,-1753 757,-1759 751,-1765 745,-1765 745,-1765 549,-1765 549,-1765 543,-1765 537,-1759 537,-1753 537,-1753 537,-28 537,-28 537,-22 543,-16 549,-16"/>
<text text-anchor="middle" x="647" y="-1752.2" font-family="Times,serif" font-size="11.00" fill="gray">Maclay</text>
</g>
<g id="clust3" class="cluster"><title>cluster_\Maclay\ServiceBundle</title>
<path fill="none" stroke="gray" d="M557,-24C557,-24 737,-24 737,-24 743,-24 749,-30 749,-36 749,-36 749,-1726 749,-1726 749,-1732 743,-1738 737,-1738 737,-1738 557,-1738 557,-1738 551,-1738 545,-1732 545,-1726 545,-1726 545,-36 545,-36 545,-30 551,-24 557,-24"/>
<text text-anchor="middle" x="647" y="-1725.2" font-family="Times,serif" font-size="11.00" fill="gray">ServiceBundle</text>
</g>
<g id="clust4" class="cluster"><title>cluster_\Maclay\ServiceBundle\Controller</title>
<path fill="none" stroke="gray" d="M587,-1262C587,-1262 707,-1262 707,-1262 713,-1262 719,-1268 719,-1274 719,-1274 719,-1699 719,-1699 719,-1705 713,-1711 707,-1711 707,-1711 587,-1711 587,-1711 581,-1711 575,-1705 575,-1699 575,-1699 575,-1274 575,-1274 575,-1268 581,-1262 587,-1262"/>
<text text-anchor="middle" x="647" y="-1698.2" font-family="Times,serif" font-size="11.00" fill="gray">Controller</text>
</g>
<g id="clust5" class="cluster"><title>cluster_\Maclay\ServiceBundle\DependencyInjection</title>
<path fill="none" stroke="gray" d="M570,-1129C570,-1129 724,-1129 724,-1129 730,-1129 736,-1135 736,-1141 736,-1141 736,-1242 736,-1242 736,-1248 730,-1254 724,-1254 724,-1254 570,-1254 570,-1254 564,-1254 558,-1248 558,-1242 558,-1242 558,-1141 558,-1141 558,-1135 564,-1129 570,-1129"/>
<text text-anchor="middle" x="647" y="-1241.2" font-family="Times,serif" font-size="11.00" fill="gray">DependencyInjection</text>
</g>
<g id="clust6" class="cluster"><title>cluster_\Maclay\ServiceBundle\Entity</title>
<path fill="none" stroke="gray" d="M573,-618C573,-618 721,-618 721,-618 727,-618 733,-624 733,-630 733,-630 733,-1109 733,-1109 733,-1115 727,-1121 721,-1121 721,-1121 573,-1121 573,-1121 567,-1121 561,-1115 561,-1109 561,-1109 561,-630 561,-630 561,-624 567,-618 573,-618"/>
<text text-anchor="middle" x="647" y="-1108.2" font-family="Times,serif" font-size="11.00" fill="gray">Entity</text>
</g>
<g id="clust7" class="cluster"><title>cluster_\Maclay\ServiceBundle\Form</title>
<path fill="none" stroke="gray" d="M580,-323C580,-323 714,-323 714,-323 720,-323 726,-329 726,-335 726,-335 726,-598 726,-598 726,-604 720,-610 714,-610 714,-610 580,-610 580,-610 574,-610 568,-604 568,-598 568,-598 568,-335 568,-335 568,-329 574,-323 580,-323"/>
<text text-anchor="middle" x="647" y="-597.2" font-family="Times,serif" font-size="11.00" fill="gray">Form</text>
</g>
<g id="clust8" class="cluster"><title>cluster_\Maclay\ServiceBundle\Model</title>
<path fill="none" stroke="gray" d="M593,-190C593,-190 701,-190 701,-190 707,-190 713,-196 713,-202 713,-202 713,-303 713,-303 713,-309 707,-315 701,-315 701,-315 593,-315 593,-315 587,-315 581,-309 581,-303 581,-303 581,-202 581,-202 581,-196 587,-190 593,-190"/>
<text text-anchor="middle" x="647" y="-302.2" font-family="Times,serif" font-size="11.00" fill="gray">Model</text>
</g>
<g id="clust9" class="cluster"><title>cluster_\Maclay\ServiceBundle\Tests</title>
<path fill="none" stroke="gray" d="M565,-76C565,-76 729,-76 729,-76 735,-76 741,-82 741,-88 741,-88 741,-170 741,-170 741,-176 735,-182 729,-182 729,-182 565,-182 565,-182 559,-182 553,-176 553,-170 553,-170 553,-88 553,-88 553,-82 559,-76 565,-76"/>
<text text-anchor="middle" x="647" y="-169.2" font-family="Times,serif" font-size="11.00" fill="gray">Tests</text>
</g>
<g id="clust10" class="cluster"><title>cluster_\Maclay\ServiceBundle\Tests\Controller</title>
<path fill="none" stroke="gray" d="M573,-84C573,-84 721,-84 721,-84 727,-84 733,-90 733,-96 733,-96 733,-143 733,-143 733,-149 727,-155 721,-155 721,-155 573,-155 573,-155 567,-155 561,-149 561,-143 561,-143 561,-96 561,-96 561,-90 567,-84 573,-84"/>
<text text-anchor="middle" x="647" y="-142.2" font-family="Times,serif" font-size="11.00" fill="gray">Controller</text>
</g>
<!-- \\Maclay\\ServiceBundle\\Controller\\AccountController -->
<g id="node1" class="node"><title>\\Maclay\\ServiceBundle\\Controller\\AccountController</title>
<polygon fill="none" stroke="black" points="711.218,-1684 582.782,-1684 582.782,-1648 711.218,-1648 711.218,-1684"/>
<text text-anchor="middle" x="647" y="-1662.7" font-family="Courier,monospace" font-size="11.00">AccountController</text>
</g>
<!-- \\Symfony\\Bundle\\FrameworkBundle\\Controller\\Controller -->
<g id="node29" class="node"><title>\\Symfony\\Bundle\\FrameworkBundle\\Controller\\Controller</title>
<ellipse fill="none" stroke="black" cx="247" cy="-1477" rx="219.258" ry="18"/>
<text text-anchor="middle" x="247" y="-1472.8" font-family="Times,serif" font-size="14.00" fill="gray">\Symfony\Bundle\FrameworkBundle\Controller\Controller</text>
</g>
<!-- \\Maclay\\ServiceBundle\\Controller\\AccountController&#45;&gt;\\Symfony\\Bundle\\FrameworkBundle\\Controller\\Controller -->
<g id="edge1" class="edge"><title>\\Maclay\\ServiceBundle\\Controller\\AccountController&#45;&gt;\\Symfony\\Bundle\\FrameworkBundle\\Controller\\Controller</title>
<path fill="none" stroke="black" d="M582.723,-1654.99C565.013,-1650.95 545.974,-1645.68 529,-1639 433.893,-1601.58 332.398,-1535.79 281.379,-1500.67"/>
<polygon fill="none" stroke="black" points="283.255,-1497.71 273.042,-1494.89 279.269,-1503.46 283.255,-1497.71"/>
</g>
<!-- \\Maclay\\ServiceBundle\\Controller\\AdminController -->
<g id="node2" class="node"><title>\\Maclay\\ServiceBundle\\Controller\\AdminController</title>
<polygon fill="none" stroke="black" points="704.516,-1630 589.484,-1630 589.484,-1594 704.516,-1594 704.516,-1630"/>
<text text-anchor="middle" x="647" y="-1608.7" font-family="Courier,monospace" font-size="11.00">AdminController</text>
</g>
<!-- \\Maclay\\ServiceBundle\\Controller\\AdminController&#45;&gt;\\Symfony\\Bundle\\FrameworkBundle\\Controller\\Controller -->
<g id="edge2" class="edge"><title>\\Maclay\\ServiceBundle\\Controller\\AdminController&#45;&gt;\\Symfony\\Bundle\\FrameworkBundle\\Controller\\Controller</title>
<path fill="none" stroke="black" d="M589.338,-1600.6C570.039,-1596.28 548.436,-1590.95 529,-1585 446.558,-1559.78 353.689,-1522.22 298.061,-1498.69"/>
<polygon fill="none" stroke="black" points="299.362,-1495.44 288.789,-1494.76 296.626,-1501.89 299.362,-1495.44"/>
</g>
<!-- \\Maclay\\ServiceBundle\\Controller\\ClubController -->
<g id="node3" class="node"><title>\\Maclay\\ServiceBundle\\Controller\\ClubController</title>
<polygon fill="none" stroke="black" points="701.416,-1576 592.584,-1576 592.584,-1540 701.416,-1540 701.416,-1576"/>
<text text-anchor="middle" x="647" y="-1554.7" font-family="Courier,monospace" font-size="11.00">ClubController</text>
</g>
<!-- \\Maclay\\ServiceBundle\\Controller\\ClubController&#45;&gt;\\Symfony\\Bundle\\FrameworkBundle\\Controller\\Controller -->
<g id="edge3" class="edge"><title>\\Maclay\\ServiceBundle\\Controller\\ClubController&#45;&gt;\\Symfony\\Bundle\\FrameworkBundle\\Controller\\Controller</title>
<path fill="none" stroke="black" d="M592.737,-1547.16C528.141,-1534.01 418.195,-1511.64 339.837,-1495.69"/>
<polygon fill="none" stroke="black" points="340.46,-1492.25 329.963,-1493.68 339.064,-1499.1 340.46,-1492.25"/>
</g>
<!-- \\Maclay\\ServiceBundle\\Controller\\FileController -->
<g id="node4" class="node"><title>\\Maclay\\ServiceBundle\\Controller\\FileController</title>
<polygon fill="none" stroke="black" points="701.416,-1522 592.584,-1522 592.584,-1486 701.416,-1486 701.416,-1522"/>
<text text-anchor="middle" x="647" y="-1500.7" font-family="Courier,monospace" font-size="11.00">FileController</text>
</g>
<!-- \\Maclay\\ServiceBundle\\Controller\\FileController&#45;&gt;\\Symfony\\Bundle\\FrameworkBundle\\Controller\\Controller -->
<g id="edge4" class="edge"><title>\\Maclay\\ServiceBundle\\Controller\\FileController&#45;&gt;\\Symfony\\Bundle\\FrameworkBundle\\Controller\\Controller</title>
<path fill="none" stroke="black" d="M592.737,-1500.39C549.898,-1497.48 487.114,-1493.22 426.826,-1489.13"/>
<polygon fill="none" stroke="black" points="426.998,-1485.64 416.784,-1488.45 426.524,-1492.62 426.998,-1485.64"/>
</g>
<!-- \\Maclay\\ServiceBundle\\Controller\\LayoutController -->
<g id="node5" class="node"><title>\\Maclay\\ServiceBundle\\Controller\\LayoutController</title>
<polygon fill="none" stroke="black" points="707.618,-1468 586.382,-1468 586.382,-1432 707.618,-1432 707.618,-1468"/>
<text text-anchor="middle" x="647" y="-1446.7" font-family="Courier,monospace" font-size="11.00">LayoutController</text>
</g>
<!-- \\Maclay\\ServiceBundle\\Controller\\LayoutController&#45;&gt;\\Symfony\\Bundle\\FrameworkBundle\\Controller\\Controller -->
<g id="edge5" class="edge"><title>\\Maclay\\ServiceBundle\\Controller\\LayoutController&#45;&gt;\\Symfony\\Bundle\\FrameworkBundle\\Controller\\Controller</title>
<path fill="none" stroke="black" d="M585.984,-1454.07C543.476,-1456.96 484.069,-1460.99 426.898,-1464.86"/>
<polygon fill="none" stroke="black" points="426.369,-1461.39 416.628,-1465.56 426.842,-1468.38 426.369,-1461.39"/>
</g>
<!-- \\Maclay\\ServiceBundle\\Controller\\ProfileController -->
<g id="node6" class="node"><title>\\Maclay\\ServiceBundle\\Controller\\ProfileController</title>
<polygon fill="none" stroke="black" points="711.218,-1414 582.782,-1414 582.782,-1378 711.218,-1378 711.218,-1414"/>
<text text-anchor="middle" x="647" y="-1392.7" font-family="Courier,monospace" font-size="11.00">ProfileController</text>
</g>
<!-- \\Maclay\\ServiceBundle\\Controller\\ProfileController&#45;&gt;\\Symfony\\Bundle\\FrameworkBundle\\Controller\\Controller -->
<g id="edge6" class="edge"><title>\\Maclay\\ServiceBundle\\Controller\\ProfileController&#45;&gt;\\Symfony\\Bundle\\FrameworkBundle\\Controller\\Controller</title>
<path fill="none" stroke="black" d="M582.496,-1408.92C516.965,-1422.26 414.102,-1443.2 339.738,-1458.33"/>
<polygon fill="none" stroke="black" points="339.002,-1454.91 329.9,-1460.33 340.398,-1461.77 339.002,-1454.91"/>
</g>
<!-- \\Maclay\\ServiceBundle\\Controller\\RecordController -->
<g id="node7" class="node"><title>\\Maclay\\ServiceBundle\\Controller\\RecordController</title>
<polygon fill="none" stroke="black" points="707.618,-1360 586.382,-1360 586.382,-1324 707.618,-1324 707.618,-1360"/>
<text text-anchor="middle" x="647" y="-1338.7" font-family="Courier,monospace" font-size="11.00">RecordController</text>
</g>
<!-- \\Maclay\\ServiceBundle\\Controller\\RecordController&#45;&gt;\\Symfony\\Bundle\\FrameworkBundle\\Controller\\Controller -->
<g id="edge7" class="edge"><title>\\Maclay\\ServiceBundle\\Controller\\RecordController&#45;&gt;\\Symfony\\Bundle\\FrameworkBundle\\Controller\\Controller</title>
<path fill="none" stroke="black" d="M586.351,-1354.07C567.829,-1358.27 547.439,-1363.36 529,-1369 446.558,-1394.22 353.689,-1431.78 298.061,-1455.31"/>
<polygon fill="none" stroke="black" points="296.626,-1452.11 288.789,-1459.24 299.362,-1458.56 296.626,-1452.11"/>
</g>
<!-- \\Maclay\\ServiceBundle\\Controller\\RoutingController -->
<g id="node8" class="node"><title>\\Maclay\\ServiceBundle\\Controller\\RoutingController</title>
<polygon fill="none" stroke="black" points="711.218,-1306 582.782,-1306 582.782,-1270 711.218,-1270 711.218,-1306"/>
<text text-anchor="middle" x="647" y="-1284.7" font-family="Courier,monospace" font-size="11.00">RoutingController</text>
</g>
<!-- \\Maclay\\ServiceBundle\\Controller\\RoutingController&#45;&gt;\\Symfony\\Bundle\\FrameworkBundle\\Controller\\Controller -->
<g id="edge8" class="edge"><title>\\Maclay\\ServiceBundle\\Controller\\RoutingController&#45;&gt;\\Symfony\\Bundle\\FrameworkBundle\\Controller\\Controller</title>
<path fill="none" stroke="black" d="M582.723,-1299.01C565.013,-1303.05 545.974,-1308.32 529,-1315 433.893,-1352.42 332.398,-1418.21 281.379,-1453.33"/>
<polygon fill="none" stroke="black" points="279.269,-1450.54 273.042,-1459.11 283.255,-1456.29 279.269,-1450.54"/>
</g>
<!-- \\Maclay\\ServiceBundle\\DependencyInjection\\Configuration -->
<g id="node9" class="node"><title>\\Maclay\\ServiceBundle\\DependencyInjection\\Configuration</title>
<polygon fill="none" stroke="black" points="697.814,-1227 596.186,-1227 596.186,-1191 697.814,-1191 697.814,-1227"/>
<text text-anchor="middle" x="647" y="-1205.7" font-family="Courier,monospace" font-size="11.00">Configuration</text>
</g>
<!-- \\Symfony\\Component\\Config\\Definition\\ConfigurationInterface -->
<g id="node30" class="node"><title>\\Symfony\\Component\\Config\\Definition\\ConfigurationInterface</title>
<ellipse fill="none" stroke="black" cx="247" cy="-1209" rx="236.665" ry="18"/>
<text text-anchor="middle" x="247" y="-1204.8" font-family="Times,serif" font-size="14.00" fill="gray">\Symfony\Component\Config\Definition\ConfigurationInterface</text>
</g>
<!-- \\Maclay\\ServiceBundle\\DependencyInjection\\Configuration&#45;&gt;\\Symfony\\Component\\Config\\Definition\\ConfigurationInterface -->
<g id="edge9" class="edge"><title>\\Maclay\\ServiceBundle\\DependencyInjection\\Configuration&#45;&gt;\\Symfony\\Component\\Config\\Definition\\ConfigurationInterface</title>
<path fill="none" stroke="black" stroke-dasharray="1,5" d="M595.996,-1209C568.686,-1209 532.615,-1209 494.043,-1209"/>
<polygon fill="none" stroke="black" points="493.647,-1205.5 483.647,-1209 493.647,-1212.5 493.647,-1205.5"/>
</g>
<!-- \\Maclay\\ServiceBundle\\DependencyInjection\\MaclayServiceExtension -->
<g id="node10" class="node"><title>\\Maclay\\ServiceBundle\\DependencyInjection\\MaclayServiceExtension</title>
<polygon fill="none" stroke="black" points="727.724,-1173 566.276,-1173 566.276,-1137 727.724,-1137 727.724,-1173"/>
<text text-anchor="middle" x="647" y="-1151.7" font-family="Courier,monospace" font-size="11.00">MaclayServiceExtension</text>
</g>
<!-- \\Symfony\\Component\\HttpKernel\\DependencyInjection\\Extension -->
<g id="node31" class="node"><title>\\Symfony\\Component\\HttpKernel\\DependencyInjection\\Extension</title>
<ellipse fill="none" stroke="black" cx="247" cy="-1155" rx="246.736" ry="18"/>
<text text-anchor="middle" x="247" y="-1150.8" font-family="Times,serif" font-size="14.00" fill="gray">\Symfony\Component\HttpKernel\DependencyInjection\Extension</text>
</g>
<!-- \\Maclay\\ServiceBundle\\DependencyInjection\\MaclayServiceExtension&#45;&gt;\\Symfony\\Component\\HttpKernel\\DependencyInjection\\Extension -->
<g id="edge10" class="edge"><title>\\Maclay\\ServiceBundle\\DependencyInjection\\MaclayServiceExtension&#45;&gt;\\Symfony\\Component\\HttpKernel\\DependencyInjection\\Extension</title>
<path fill="none" stroke="black" d="M565.938,-1155C547.237,-1155 526.323,-1155 504.392,-1155"/>
<polygon fill="none" stroke="black" points="504.248,-1151.5 494.248,-1155 504.248,-1158.5 504.248,-1151.5"/>
</g>
<!-- \\Maclay\\ServiceBundle\\Entity\\Club -->
<g id="node11" class="node"><title>\\Maclay\\ServiceBundle\\Entity\\Club</title>
<polygon fill="none" stroke="black" points="674,-1094 620,-1094 620,-1058 674,-1058 674,-1094"/>
<text text-anchor="middle" x="647" y="-1072.7" font-family="Courier,monospace" font-size="11.00">Club</text>
</g>
<!-- \\Maclay\\ServiceBundle\\Entity\\ClubRepository -->
<g id="node12" class="node"><title>\\Maclay\\ServiceBundle\\Entity\\ClubRepository</title>
<polygon fill="none" stroke="black" points="701.416,-932 592.584,-932 592.584,-896 701.416,-896 701.416,-932"/>
<text text-anchor="middle" x="647" y="-910.7" font-family="Courier,monospace" font-size="11.00">ClubRepository</text>
</g>
<!-- \\Doctrine\\ORM\\EntityRepository -->
<g id="node32" class="node"><title>\\Doctrine\\ORM\\EntityRepository</title>
<ellipse fill="none" stroke="black" cx="247" cy="-887" rx="128.985" ry="18"/>
<text text-anchor="middle" x="247" y="-882.8" font-family="Times,serif" font-size="14.00" fill="gray">\Doctrine\ORM\EntityRepository</text>
</g>
<!-- \\Maclay\\ServiceBundle\\Entity\\ClubRepository&#45;&gt;\\Doctrine\\ORM\\EntityRepository -->
<g id="edge11" class="edge"><title>\\Maclay\\ServiceBundle\\Entity\\ClubRepository&#45;&gt;\\Doctrine\\ORM\\EntityRepository</title>
<path fill="none" stroke="black" d="M592.737,-910.387C537.002,-906.606 447.506,-900.534 373.668,-895.525"/>
<polygon fill="none" stroke="black" points="373.573,-892.011 363.359,-894.826 373.099,-898.995 373.573,-892.011"/>
</g>
<!-- \\Maclay\\ServiceBundle\\Entity\\Record -->
<g id="node13" class="node"><title>\\Maclay\\ServiceBundle\\Entity\\Record</title>
<polygon fill="none" stroke="black" points="674.608,-986 619.392,-986 619.392,-950 674.608,-950 674.608,-986"/>
<text text-anchor="middle" x="647" y="-964.7" font-family="Courier,monospace" font-size="11.00">Record</text>
</g>
<!-- \\Maclay\\ServiceBundle\\Entity\\RecordRepository -->
<g id="node14" class="node"><title>\\Maclay\\ServiceBundle\\Entity\\RecordRepository</title>
<polygon fill="none" stroke="black" points="707.618,-878 586.382,-878 586.382,-842 707.618,-842 707.618,-878"/>
<text text-anchor="middle" x="647" y="-856.7" font-family="Courier,monospace" font-size="11.00">RecordRepository</text>
</g>
<!-- \\Maclay\\ServiceBundle\\Entity\\RecordRepository&#45;&gt;\\Doctrine\\ORM\\EntityRepository -->
<g id="edge12" class="edge"><title>\\Maclay\\ServiceBundle\\Entity\\RecordRepository&#45;&gt;\\Doctrine\\ORM\\EntityRepository</title>
<path fill="none" stroke="black" d="M585.984,-864.071C529.997,-867.87 444.693,-873.657 373.794,-878.466"/>
<polygon fill="none" stroke="black" points="373.183,-875 363.443,-879.168 373.657,-881.983 373.183,-875"/>
</g>
<!-- \\Maclay\\ServiceBundle\\Entity\\Role -->
<g id="node15" class="node"><title>\\Maclay\\ServiceBundle\\Entity\\Role</title>
<polygon fill="none" stroke="black" points="674,-716 620,-716 620,-680 674,-680 674,-716"/>
<text text-anchor="middle" x="647" y="-694.7" font-family="Courier,monospace" font-size="11.00">Role</text>
</g>
<!-- \\FOS\\UserBundle\\Model\\Group -->
<g id="node33" class="node"><title>\\FOS\\UserBundle\\Model\\Group</title>
<ellipse fill="none" stroke="black" cx="247" cy="-698" rx="124.175" ry="18"/>
<text text-anchor="middle" x="247" y="-693.8" font-family="Times,serif" font-size="14.00" fill="gray">\FOS\UserBundle\Model\Group</text>
</g>
<!-- \\Maclay\\ServiceBundle\\Entity\\Role&#45;&gt;\\FOS\\UserBundle\\Model\\Group -->
<g id="edge13" class="edge"><title>\\Maclay\\ServiceBundle\\Entity\\Role&#45;&gt;\\FOS\\UserBundle\\Model\\Group</title>
<path fill="none" stroke="black" d="M619.886,-698C572.06,-698 467.402,-698 381.26,-698"/>
<polygon fill="none" stroke="black" points="381.119,-694.5 371.119,-698 381.119,-701.5 381.119,-694.5"/>
</g>
<!-- \\Maclay\\ServiceBundle\\Entity\\StudentInfo -->
<g id="node16" class="node"><title>\\Maclay\\ServiceBundle\\Entity\\StudentInfo</title>
<polygon fill="none" stroke="black" points="691.113,-824 602.887,-824 602.887,-788 691.113,-788 691.113,-824"/>
<text text-anchor="middle" x="647" y="-802.7" font-family="Courier,monospace" font-size="11.00">StudentInfo</text>
</g>
<!-- \\Maclay\\ServiceBundle\\Entity\\StudentInfoRepository -->
<g id="node17" class="node"><title>\\Maclay\\ServiceBundle\\Entity\\StudentInfoRepository</title>
<polygon fill="none" stroke="black" points="724.123,-770 569.877,-770 569.877,-734 724.123,-734 724.123,-770"/>
<text text-anchor="middle" x="647" y="-748.7" font-family="Courier,monospace" font-size="11.00">StudentInfoRepository</text>
</g>
<!-- \\Maclay\\ServiceBundle\\Entity\\StudentInfoRepository&#45;&gt;\\Doctrine\\ORM\\EntityRepository -->
<g id="edge14" class="edge"><title>\\Maclay\\ServiceBundle\\Entity\\StudentInfoRepository&#45;&gt;\\Doctrine\\ORM\\EntityRepository</title>
<path fill="none" stroke="black" d="M569.749,-767.966C556.092,-771.288 542.057,-775.006 529,-779 445.85,-804.436 352.092,-842.427 296.634,-865.91"/>
<polygon fill="none" stroke="black" points="295.237,-862.701 287.404,-869.834 297.976,-869.142 295.237,-862.701"/>
</g>
<!-- \\Maclay\\ServiceBundle\\Entity\\User -->
<g id="node18" class="node"><title>\\Maclay\\ServiceBundle\\Entity\\User</title>
<polygon fill="none" stroke="black" points="674,-662 620,-662 620,-626 674,-626 674,-662"/>
<text text-anchor="middle" x="647" y="-640.7" font-family="Courier,monospace" font-size="11.00">User</text>
</g>
<!-- \\FOS\\UserBundle\\Model\\User -->
<g id="node34" class="node"><title>\\FOS\\UserBundle\\Model\\User</title>
<ellipse fill="none" stroke="black" cx="247" cy="-644" rx="118.378" ry="18"/>
<text text-anchor="middle" x="247" y="-639.8" font-family="Times,serif" font-size="14.00" fill="gray">\FOS\UserBundle\Model\User</text>
</g>
<!-- \\Maclay\\ServiceBundle\\Entity\\User&#45;&gt;\\FOS\\UserBundle\\Model\\User -->
<g id="edge15" class="edge"><title>\\Maclay\\ServiceBundle\\Entity\\User&#45;&gt;\\FOS\\UserBundle\\Model\\User</title>
<path fill="none" stroke="black" d="M619.886,-644C570.979,-644 462.641,-644 375.446,-644"/>
<polygon fill="none" stroke="black" points="375.193,-640.5 365.193,-644 375.193,-647.5 375.193,-640.5"/>
</g>
<!-- \\Maclay\\ServiceBundle\\Entity\\UserRepository -->
<g id="node19" class="node"><title>\\Maclay\\ServiceBundle\\Entity\\UserRepository</title>
<polygon fill="none" stroke="black" points="701.416,-1040 592.584,-1040 592.584,-1004 701.416,-1004 701.416,-1040"/>
<text text-anchor="middle" x="647" y="-1018.7" font-family="Courier,monospace" font-size="11.00">UserRepository</text>
</g>
<!-- \\Maclay\\ServiceBundle\\Entity\\UserRepository&#45;&gt;\\Doctrine\\ORM\\EntityRepository -->
<g id="edge16" class="edge"><title>\\Maclay\\ServiceBundle\\Entity\\UserRepository&#45;&gt;\\Doctrine\\ORM\\EntityRepository</title>
<path fill="none" stroke="black" d="M592.581,-1011.33C572.483,-1006.88 549.533,-1001.28 529,-995 445.85,-969.564 352.092,-931.573 296.634,-908.09"/>
<polygon fill="none" stroke="black" points="297.976,-904.858 287.404,-904.166 295.237,-911.299 297.976,-904.858"/>
</g>
<!-- \\Maclay\\ServiceBundle\\Form\\ClubBatchRecordType -->
<g id="node20" class="node"><title>\\Maclay\\ServiceBundle\\Form\\ClubBatchRecordType</title>
<polygon fill="none" stroke="black" points="717.921,-583 576.079,-583 576.079,-547 717.921,-547 717.921,-583"/>
<text text-anchor="middle" x="647" y="-561.7" font-family="Courier,monospace" font-size="11.00">ClubBatchRecordType</text>
</g>
<!-- \\Symfony\\Component\\Form\\AbstractType -->
<g id="node35" class="node"><title>\\Symfony\\Component\\Form\\AbstractType</title>
<ellipse fill="none" stroke="black" cx="247" cy="-457" rx="160.115" ry="18"/>
<text text-anchor="middle" x="247" y="-452.8" font-family="Times,serif" font-size="14.00" fill="gray">\Symfony\Component\Form\AbstractType</text>
</g>
<!-- \\Maclay\\ServiceBundle\\Form\\ClubBatchRecordType&#45;&gt;\\Symfony\\Component\\Form\\AbstractType -->
<g id="edge17" class="edge"><title>\\Maclay\\ServiceBundle\\Form\\ClubBatchRecordType&#45;&gt;\\Symfony\\Component\\Form\\AbstractType</title>
<path fill="none" stroke="black" d="M576.249,-549.552C560.66,-545.919 544.235,-541.951 529,-538 454.589,-518.704 369.903,-493.899 313.125,-476.851"/>
<polygon fill="none" stroke="black" points="313.792,-473.397 303.208,-473.867 311.775,-480.1 313.792,-473.397"/>
</g>
<!-- \\Maclay\\ServiceBundle\\Form\\ClubRecordType -->
<g id="node21" class="node"><title>\\Maclay\\ServiceBundle\\Form\\ClubRecordType</title>
<polygon fill="none" stroke="black" points="701.416,-529 592.584,-529 592.584,-493 701.416,-493 701.416,-529"/>
<text text-anchor="middle" x="647" y="-507.7" font-family="Courier,monospace" font-size="11.00">ClubRecordType</text>
</g>
<!-- \\Maclay\\ServiceBundle\\Form\\ClubRecordType&#45;&gt;\\Symfony\\Component\\Form\\AbstractType -->
<g id="edge18" class="edge"><title>\\Maclay\\ServiceBundle\\Form\\ClubRecordType&#45;&gt;\\Symfony\\Component\\Form\\AbstractType</title>
<path fill="none" stroke="black" d="M592.737,-503.773C533.543,-495.742 436.267,-482.544 360.114,-472.212"/>
<polygon fill="none" stroke="black" points="360.37,-468.714 349.99,-470.838 359.429,-475.651 360.37,-468.714"/>
</g>
<!-- \\Maclay\\ServiceBundle\\Form\\ClubType -->
<g id="node22" class="node"><title>\\Maclay\\ServiceBundle\\Form\\ClubType</title>
<polygon fill="none" stroke="black" points="681.309,-475 612.691,-475 612.691,-439 681.309,-439 681.309,-475"/>
<text text-anchor="middle" x="647" y="-453.7" font-family="Courier,monospace" font-size="11.00">ClubType</text>
</g>
<!-- \\Maclay\\ServiceBundle\\Form\\ClubType&#45;&gt;\\Symfony\\Component\\Form\\AbstractType -->
<g id="edge19" class="edge"><title>\\Maclay\\ServiceBundle\\Form\\ClubType&#45;&gt;\\Symfony\\Component\\Form\\AbstractType</title>
<path fill="none" stroke="black" d="M612.41,-457C569.184,-457 490.95,-457 418.021,-457"/>
<polygon fill="none" stroke="black" points="417.77,-453.5 407.77,-457 417.77,-460.5 417.77,-453.5"/>
</g>
<!-- \\Maclay\\ServiceBundle\\Form\\RecordType -->
<g id="node23" class="node"><title>\\Maclay\\ServiceBundle\\Form\\RecordType</title>
<polygon fill="none" stroke="black" points="688.011,-421 605.989,-421 605.989,-385 688.011,-385 688.011,-421"/>
<text text-anchor="middle" x="647" y="-399.7" font-family="Courier,monospace" font-size="11.00">RecordType</text>
</g>
<!-- \\Maclay\\ServiceBundle\\Form\\RecordType&#45;&gt;\\Symfony\\Component\\Form\\AbstractType -->
<g id="edge20" class="edge"><title>\\Maclay\\ServiceBundle\\Form\\RecordType&#45;&gt;\\Symfony\\Component\\Form\\AbstractType</title>
<path fill="none" stroke="black" d="M605.647,-408.475C548.544,-416.223 441.986,-430.68 359.979,-441.807"/>
<polygon fill="none" stroke="black" points="359.29,-438.368 349.851,-443.181 360.231,-445.305 359.29,-438.368"/>
</g>
<!-- \\Maclay\\ServiceBundle\\Form\\StudentHoursType -->
<g id="node24" class="node"><title>\\Maclay\\ServiceBundle\\Form\\StudentHoursType</title>
<polygon fill="none" stroke="black" points="707.618,-367 586.382,-367 586.382,-331 707.618,-331 707.618,-367"/>
<text text-anchor="middle" x="647" y="-345.7" font-family="Courier,monospace" font-size="11.00">StudentHoursType</text>
</g>
<!-- \\Maclay\\ServiceBundle\\Form\\StudentHoursType&#45;&gt;\\Symfony\\Component\\Form\\AbstractType -->
<g id="edge21" class="edge"><title>\\Maclay\\ServiceBundle\\Form\\StudentHoursType&#45;&gt;\\Symfony\\Component\\Form\\AbstractType</title>
<path fill="none" stroke="black" d="M586.328,-362.118C567.897,-366.345 547.565,-371.186 529,-376 454.589,-395.296 369.903,-420.101 313.125,-437.149"/>
<polygon fill="none" stroke="black" points="311.775,-433.9 303.208,-440.133 313.792,-440.603 311.775,-433.9"/>
</g>
<!-- \\Maclay\\ServiceBundle\\Model\\ClubBatchRecord -->
<g id="node25" class="node"><title>\\Maclay\\ServiceBundle\\Model\\ClubBatchRecord</title>
<polygon fill="none" stroke="black" points="704.516,-288 589.484,-288 589.484,-252 704.516,-252 704.516,-288"/>
<text text-anchor="middle" x="647" y="-266.7" font-family="Courier,monospace" font-size="11.00">ClubBatchRecord</text>
</g>
<!-- \\Maclay\\ServiceBundle\\Model\\StudentHours -->
<g id="node26" class="node"><title>\\Maclay\\ServiceBundle\\Model\\StudentHours</title>
<polygon fill="none" stroke="black" points="694.713,-234 599.287,-234 599.287,-198 694.713,-198 694.713,-234"/>
<text text-anchor="middle" x="647" y="-212.7" font-family="Courier,monospace" font-size="11.00">StudentHours</text>
</g>
<!-- \\Maclay\\ServiceBundle\\Tests\\Controller\\DefaultControllerTest -->
<g id="node27" class="node"><title>\\Maclay\\ServiceBundle\\Tests\\Controller\\DefaultControllerTest</title>
<polygon fill="none" stroke="black" points="724.123,-128 569.877,-128 569.877,-92 724.123,-92 724.123,-128"/>
<text text-anchor="middle" x="647" y="-106.7" font-family="Courier,monospace" font-size="11.00">DefaultControllerTest</text>
</g>
<!-- \\Symfony\\Bundle\\FrameworkBundle\\Test\\WebTestCase -->
<g id="node37" class="node"><title>\\Symfony\\Bundle\\FrameworkBundle\\Test\\WebTestCase</title>
<ellipse fill="none" stroke="black" cx="247" cy="-110" rx="209.152" ry="18"/>
<text text-anchor="middle" x="247" y="-105.8" font-family="Times,serif" font-size="14.00" fill="gray">\Symfony\Bundle\FrameworkBundle\Test\WebTestCase</text>
</g>
<!-- \\Maclay\\ServiceBundle\\Tests\\Controller\\DefaultControllerTest&#45;&gt;\\Symfony\\Bundle\\FrameworkBundle\\Test\\WebTestCase -->
<g id="edge23" class="edge"><title>\\Maclay\\ServiceBundle\\Tests\\Controller\\DefaultControllerTest&#45;&gt;\\Symfony\\Bundle\\FrameworkBundle\\Test\\WebTestCase</title>
<path fill="none" stroke="black" d="M569.733,-110C539.816,-110 503.829,-110 466.919,-110"/>
<polygon fill="none" stroke="black" points="466.488,-106.5 456.488,-110 466.488,-113.5 466.488,-106.5"/>
</g>
<!-- \\Maclay\\ServiceBundle\\MaclayServiceBundle -->
<g id="node28" class="node"><title>\\Maclay\\ServiceBundle\\MaclayServiceBundle</title>
<polygon fill="none" stroke="black" points="717.921,-68 576.079,-68 576.079,-32 717.921,-32 717.921,-68"/>
<text text-anchor="middle" x="647" y="-46.7" font-family="Courier,monospace" font-size="11.00">MaclayServiceBundle</text>
</g>
<!-- \\Symfony\\Component\\HttpKernel\\Bundle\\Bundle -->
<g id="node36" class="node"><title>\\Symfony\\Component\\HttpKernel\\Bundle\\Bundle</title>
<ellipse fill="none" stroke="black" cx="247" cy="-50" rx="186.926" ry="18"/>
<text text-anchor="middle" x="247" y="-45.8" font-family="Times,serif" font-size="14.00" fill="gray">\Symfony\Component\HttpKernel\Bundle\Bundle</text>
</g>
<!-- \\Maclay\\ServiceBundle\\MaclayServiceBundle&#45;&gt;\\Symfony\\Component\\HttpKernel\\Bundle\\Bundle -->
<g id="edge22" class="edge"><title>\\Maclay\\ServiceBundle\\MaclayServiceBundle&#45;&gt;\\Symfony\\Component\\HttpKernel\\Bundle\\Bundle</title>
<path fill="none" stroke="black" d="M576.218,-50C539.17,-50 491.595,-50 444.23,-50"/>
<polygon fill="none" stroke="black" points="444.129,-46.5001 434.129,-50 444.129,-53.5001 444.129,-46.5001"/>
</g>
</g>
</svg>
